<svg width="24" height="24" viewBox="0 0 24 24" fill="none" xmlns="http://www.w3.org/2000/svg">
<path d="M0.166016 11.5173C0.166016 6.08685 0.166016 3.37143 1.83287 1.68949C3.51481 0 6.20763 0 11.6003 0H12.5581C17.9508 0 20.651 0 22.3255 1.68949C23.9999 3.37899 23.9999 6.09425 23.9999 11.5173V12.4827C23.9999 17.9131 23.9999 20.6286 22.3255 22.3105C20.6511 24 17.9508 24 12.5581 24H11.6003C6.20763 24 3.51481 24 1.83287 22.3105C0.166016 20.621 0.166016 17.9058 0.166016 12.4827V11.5173Z" fill="#EB722E"/>
<path d="M12.1722 11.9208C14.6361 11.92 16.6318 9.9219 16.631 7.45882C16.6302 4.99494 14.6321 2.99921 12.169 3C9.70595 3.0008 7.70942 4.99892 7.71021 7.462C7.71339 9.92428 9.70992 11.9192 12.1722 11.9208ZM12.1722 5.61489C13.1927 5.61489 14.0201 6.44227 14.0201 7.46279C14.0201 8.48331 13.1927 9.3099 12.1722 9.3099C11.1517 9.3099 10.3243 8.48252 10.3243 7.462C10.3259 6.44227 11.1525 5.61568 12.1722 5.61489ZM13.9756 15.5602C14.8936 15.352 15.7695 14.9887 16.5666 14.4872C17.1739 14.0954 17.3487 13.2863 16.9569 12.6791C16.5714 12.0814 15.7782 11.9009 15.1726 12.2737C13.3358 13.4222 11.0039 13.4222 9.16708 12.2737C8.55747 11.8914 7.75234 12.0742 7.36845 12.683C6.98297 13.2926 7.16419 14.1002 7.77459 14.4856C7.77539 14.4856 7.77618 14.4864 7.77618 14.4864C8.57257 14.9871 9.44844 15.3504 10.3656 15.5594L7.87156 18.0535C7.37481 18.578 7.39786 19.4062 7.92322 19.903C8.42791 20.3799 9.21635 20.3799 9.72105 19.903L12.1706 17.4518L14.6218 19.903C15.132 20.4124 15.9578 20.4124 16.4681 19.903C16.9776 19.3927 16.9776 18.5669 16.4681 18.0567L13.9756 15.5602Z" fill="white"/>
</svg>
