<svg width="24" height="24" viewBox="0 0 24 24" fill="none" xmlns="http://www.w3.org/2000/svg">
<path fill-rule="evenodd" clip-rule="evenodd" d="M23.8056 9.85063C23.9336 10.5599 23.9978 11.2791 23.9976 11.9998H24C24 14.7213 23.075 17.362 21.3766 19.4885C19.6783 21.6151 17.3076 23.1012 14.6535 23.7029C11.9993 24.3047 9.21948 23.9864 6.77006 22.8003C4.32064 21.6142 2.34714 19.6308 1.17341 17.1754C-0.000321568 14.72 -0.30457 11.9386 0.310589 9.28754C0.925749 6.63649 2.42377 4.27327 4.55885 2.58569C6.69393 0.898104 9.33924 -0.0136108 12.0607 0.000153597C14.7821 0.013918 17.4181 0.952344 19.536 2.66144L17.202 4.38224C15.4981 3.21568 13.4526 2.65348 11.3919 2.78536C9.33115 2.91724 7.37398 3.73561 5.83272 5.10985C4.29146 6.48409 3.25495 8.335 2.8886 10.3672C2.52225 12.3994 2.84717 14.4957 3.81153 16.3217C4.77588 18.1476 6.32407 19.5979 8.20903 20.4411C10.094 21.2843 12.2071 21.4717 14.211 20.9736C16.215 20.4755 17.9943 19.3204 19.2651 17.6928C20.5359 16.0652 21.2248 14.0588 21.222 11.9938V11.7538L23.8056 9.85063ZM22.9332 7.04864C22.5469 6.2005 22.0637 5.39997 21.4932 4.66304L11.9976 11.6614L7.4292 8.79823V12.2434L11.9976 15.1078L22.9332 7.04864Z" fill="#21A049"/>
</svg>
