<svg width="24" height="24" viewBox="0 0 24 24" fill="none" xmlns="http://www.w3.org/2000/svg">
<path d="M0 11.52C0 6.0895 0 3.374 1.687 1.687C3.374 0 6.09 0 11.52 0H12.48C17.9105 0 20.626 0 22.313 1.687C24 3.374 24 6.09 24 11.52V12.48C24 17.9105 24 20.626 22.313 22.313C20.626 24 17.91 24 12.48 24H11.52C6.0895 24 3.374 24 1.687 22.313C0 20.626 0 17.91 0 12.48L0 11.52Z" fill="#0077FF"/>
<path d="M12.77 17.29C7.30005 17.29 4.18005 13.54 4.05005 7.3H6.79005C6.88005 11.88 8.90005 13.82 10.5 14.22V7.3H13.08V11.25C14.66 11.08 16.32 9.28 16.88 7.3H19.46C19.03 9.74 17.23 11.54 15.95 12.28C17.23 12.88 19.28 14.45 20.06 17.29H17.22C16.61 15.39 15.09 13.92 13.08 13.72V17.29H12.77Z" fill="white"/>
</svg>
