<svg width="24" height="24" viewBox="0 0 24 24" fill="none" xmlns="http://www.w3.org/2000/svg">
<g clip-path="url(#clip0_3021_17548)">
<path d="M12 23.9756C18.6139 23.9756 23.9755 18.6139 23.9755 12C23.9755 5.38608 18.6139 0.0244446 12 0.0244446C5.38605 0.0244446 0.0244141 5.38608 0.0244141 12C0.0244141 18.6139 5.38605 23.9756 12 23.9756Z" fill="#FC3F1D"/>
<path d="M16.3334 19.5178H13.7046V6.51555H12.5334C10.3868 6.51555 9.26233 7.58888 9.26233 9.19111C9.26233 11.0089 10.0379 11.8511 11.6423 12.9244L12.9646 13.8156L9.16456 19.5156H6.33789L9.75789 14.4267C7.79122 13.0222 6.68456 11.6511 6.68456 9.33777C6.68456 6.44666 8.70011 4.48 12.5157 4.48H16.3157V19.5133H16.3334V19.5178Z" fill="white"/>
</g>
<defs>
<clipPath id="clip0_3021_17548">
<rect width="24" height="24" fill="white"/>
</clipPath>
</defs>
</svg>
